<svg xmlns="http://www.w3.org/2000/svg" width="81.933" height="81.933"><path fill="none" stroke="#000" stroke-width=".5" stroke-dasharray="4,3" d="M454.352-52.094v27.303m0 269.515v27.303M877.943-51.492v27m-.197 520.917v27"/><path fill="none" stroke="#000" stroke-width=".5" d="M697.364 237.326h27m305.999.066h27"/><path fill="#D24A44" d="M40.966 0C18.341 0 0 18.341 0 40.966s18.341 40.966 40.966 40.966 40.966-18.341 40.966-40.966C81.933 18.341 63.591 0 40.966 0zm0 72.794c-17.578 0-31.828-14.25-31.828-31.828S23.388 9.138 40.966 9.138s31.828 14.25 31.828 31.828-14.25 31.828-31.828 31.828z"/><path fill="#080E0D" d="M63.852 12.532l-5.09-2.036a1.02 1.02 0 00-.834.035l-10.181 5.09a1.034 1.034 0 00-.348.286l-6.983 8.977a5.25 5.25 0 00-1.375-.208c-.469 0-.926.086-1.376.208l-6.983-8.977a1.034 1.034 0 00-.348-.286l-10.181-5.09a1.024 1.024 0 00-.834-.035l-5.09 2.036a1.018 1.018 0 10.757 1.891l4.666-1.866 9.566 4.783 6.562 8.436c-1.692 1.166-3.169 3.222-4.323 5.916l-4.018-.804-3.838-5.757a1.019 1.019 0 00-.648-.434l-4.677-.936-1.802-2.703a1.017 1.017 0 10-1.695 1.129l2.036 3.054c.15.225.383.381.648.434l4.677.936 3.838 5.757c.15.225.383.381.647.434l4.095.819a33.956 33.956 0 00-1.309 5.436c-.018.009-.038.009-.055.019l-5.09 3.054c-.166.1-.3.244-.387.417L16.749 56.8a1.018 1.018 0 001.821.911l6.994-13.989 3.506-2.104a45.871 45.871 0 00-.212 4.439c0 .883.031 1.746.078 2.598l-3.928 4.91a1.02 1.02 0 00-.159.994l2.898 7.728-3.874 7.748a1.018 1.018 0 001.821.911l4.072-8.145c.126-.254.143-.548.043-.812l-2.852-7.603 2.241-2.802c1.135 9.221 5.045 15.853 9.839 15.853 4.793 0 8.704-6.632 9.838-15.853l2.241 2.802-2.852 7.603c-.1.265-.084.559.043.812l4.072 8.145a1.019 1.019 0 001.821-.911l-3.874-7.748 2.899-7.728a1.02 1.02 0 00-.159-.994l-3.928-4.91a46.04 46.04 0 00.079-2.598c0-1.527-.074-3.01-.213-4.439l3.506 2.104 6.994 13.989a1.018 1.018 0 101.821-.911l-7.127-14.253a1.017 1.017 0 00-.387-.417l-5.09-3.054c-.017-.01-.037-.01-.055-.019-.314-1.963-.755-3.787-1.309-5.436l4.095-.819c.265-.053.498-.209.647-.434l3.838-5.757 4.677-.936c.265-.053.498-.209.647-.434l2.036-3.054c.312-.467.185-1.1-.283-1.411a1.015 1.015 0 00-1.412.282L59.8 23.761l-4.677.936a1.014 1.014 0 00-.647.434l-3.838 5.757-4.018.804c-1.153-2.694-2.631-4.75-4.323-5.916l6.562-8.436 9.566-4.783 4.666 1.866a1.017 1.017 0 001.323-.567 1.013 1.013 0 00-.562-1.324m-17.029 27.9c-1.968.975-4.81 1.553-7.783 1.553-2.974 0-5.817-.577-7.784-1.553.265-2.028.66-3.884 1.163-5.522 1.876-.683 4.196-1.07 6.622-1.07s4.746.387 6.621 1.07c.501 1.638.896 3.494 1.161 5.522M45.66 57.203c-1.874.684-4.194 1.071-6.621 1.071-2.427 0-4.747-.387-6.622-1.071-.503-1.637-.898-3.493-1.163-5.521 1.968-.976 4.81-1.553 7.784-1.553 2.973 0 5.815.576 7.783 1.553-.263 2.028-.658 3.884-1.161 5.521"/><path fill="#D24A44" d="M15.036 18.736l5.942-5.942L70.272 62.09l-5.941 5.942z"/></svg>